<?xml version="1.0" encoding="UTF-8" standalone="no"?>
<!-- Created with Inkscape (http://www.inkscape.org/) -->

<svg
   width="87.68"
   height="45.013332"
   id="svg2"
   version="1.1"
   inkscape:version="1.4 (e7c3feb100, 2024-10-09)"
   sodipodi:docname="via_logo.svg"
   inkscape:export-filename="C:\Users\kenba\Documents\GitHub\ViaTechnology\via_logo.png"
   inkscape:export-xdpi="329.15396"
   inkscape:export-ydpi="329.15396"
   xmlns:inkscape="http://www.inkscape.org/namespaces/inkscape"
   xmlns:sodipodi="http://sodipodi.sourceforge.net/DTD/sodipodi-0.dtd"
   xmlns="http://www.w3.org/2000/svg"
   xmlns:svg="http://www.w3.org/2000/svg"
   xmlns:rdf="http://www.w3.org/1999/02/22-rdf-syntax-ns#"
   xmlns:cc="http://creativecommons.org/ns#"
   xmlns:dc="http://purl.org/dc/elements/1.1/">
  <defs
     id="defs4" />
  <sodipodi:namedview
     id="base"
     pagecolor="#ffffff"
     bordercolor="#666666"
     borderopacity="1.0"
     inkscape:pageopacity="0.0"
     inkscape:pageshadow="2"
     inkscape:zoom="5.6"
     inkscape:cx="13.035714"
     inkscape:cy="22.5"
     inkscape:document-units="px"
     inkscape:current-layer="layer1"
     showgrid="false"
     inkscape:window-width="1843"
     inkscape:window-height="991"
     inkscape:window-x="26"
     inkscape:window-y="23"
     inkscape:window-maximized="0"
     fit-margin-top="0.1"
     fit-margin-left="0.1"
     fit-margin-right="0.1"
     fit-margin-bottom="0.1"
     inkscape:showpageshadow="2"
     inkscape:pagecheckerboard="0"
     inkscape:deskcolor="#d1d1d1">
    <inkscape:grid
       type="xygrid"
       id="grid2996"
       empspacing="5"
       visible="true"
       enabled="true"
       snapvisiblegridlinesonly="true"
       originx="-4.16"
       originy="-1076.16"
       spacingx="1.0666667"
       spacingy="1.0666667"
       units="px" />
  </sodipodi:namedview>
  <metadata
     id="metadata7">
    <rdf:RDF>
      <cc:Work
         rdf:about="">
        <dc:format>image/svg+xml</dc:format>
        <dc:type
           rdf:resource="http://purl.org/dc/dcmitype/StillImage" />
        <dc:title />
      </cc:Work>
    </rdf:RDF>
  </metadata>
  <g
     inkscape:label="Layer 1"
     inkscape:groupmode="layer"
     id="layer1"
     transform="translate(-4.16,-1.3463277)">
    <g
       id="g4521"
       inkscape:export-xdpi="90"
       inkscape:export-ydpi="90">
      <g
         id="g3004">
        <path
           style="fill:none;stroke:#000000;stroke-width:2.13333344;stroke-linecap:round;stroke-linejoin:miter;stroke-miterlimit:4;stroke-dasharray:none;stroke-opacity:1"
           d="M 69.333333,2.5196621 C 90.666667,45.18633 90.666667,45.18633 90.666667,45.18633"
           id="path2998"
           inkscape:connector-curvature="0" />
        <path
           inkscape:connector-curvature="0"
           id="path3000"
           d="M 5.3333333,2.5196621 C 26.666667,45.18633 26.666667,45.18633 26.666667,45.18633"
           style="fill:none;stroke:#000000;stroke-width:2.13333344;stroke-linecap:round;stroke-linejoin:miter;stroke-miterlimit:4;stroke-dasharray:none;stroke-opacity:1" />
        <path
           inkscape:connector-curvature="0"
           id="path3002"
           d="M 69.333333,2.5196621 C 48,45.18633 48,45.18633 48,45.18633"
           style="fill:none;stroke:#000000;stroke-width:2.13333344;stroke-linecap:round;stroke-linejoin:miter;stroke-miterlimit:4;stroke-dasharray:none;stroke-opacity:1" />
        <path
           style="fill:none;stroke:#000000;stroke-width:2.13333344;stroke-linecap:round;stroke-linejoin:miter;stroke-miterlimit:4;stroke-dasharray:none;stroke-opacity:1"
           d="m 26.666667,45.18633 c 64,0 64,0 64,0"
           id="path3004"
           inkscape:connector-curvature="0" />
        <path
           inkscape:connector-curvature="0"
           id="path3006"
           d="m 5.3333333,2.5196621 c 63.9999997,0 63.9999997,0 63.9999997,0"
           style="fill:none;stroke:#000000;stroke-width:2.13333344;stroke-linecap:round;stroke-linejoin:miter;stroke-miterlimit:4;stroke-dasharray:none;stroke-opacity:1" />
        <path
           style="fill:none;stroke:#000000;stroke-width:2.13333344;stroke-linecap:round;stroke-linejoin:miter;stroke-miterlimit:4;stroke-dasharray:none;stroke-opacity:1"
           d="M 48,2.519661 C 26.666667,45.18633 26.666667,45.18633 26.666667,45.18633"
           id="path3008"
           inkscape:connector-curvature="0" />
        <path
           style="fill:#4000c0;fill-opacity:1;stroke-width:1.06666672;stroke-linecap:round"
           d="M 16.541361,23.513358 C 10.969999,12.371027 6.4453903,3.2207968 6.4866747,3.1795124 6.5279591,3.1382279 15.650716,3.1262697 26.759468,3.1529385 L 46.957197,3.2014271 36.814154,23.486783 26.671109,43.772139 Z"
           id="path3848"
           inkscape:connector-curvature="0" />
        <path
           style="fill:#4000c0;fill-opacity:1;stroke-width:1.06666672;stroke-linecap:round"
           d="m 49.099681,44.534404 c 0,-0.190457 20.213579,-40.51609 20.275549,-40.4492601 0.03502,0.037765 4.615996,9.1758061 10.179952,20.3067591 L 89.671466,44.629998 H 69.385572 c -11.157239,0 -20.285891,-0.04302 -20.285891,-0.09559 z"
           id="path3850"
           inkscape:connector-curvature="0" />
        <path
           style="fill:#ffffff;fill-opacity:1;stroke-width:1.06666672;stroke-linecap:round"
           d="m 27.730243,44.534992 c 0,-0.05226 4.649816,-9.39511 10.332924,-20.761904 L 48.396091,3.1061889 h 9.952963 9.952964 L 57.920719,23.868093 47.53942,44.629998 h -9.904588 c -5.447524,0 -9.904589,-0.04275 -9.904589,-0.09501 z"
           id="path3864"
           inkscape:connector-curvature="0" />
        <text
           xml:space="preserve"
           style="font-style:normal;font-variant:normal;font-weight:normal;font-stretch:normal;font-size:12.8px;line-height:0%;font-family:'Liberation Sans';-inkscape-font-specification:'Liberation Sans';text-align:start;letter-spacing:0px;word-spacing:0px;writing-mode:lr-tb;text-anchor:start;fill:#808080;fill-opacity:1;stroke:none;stroke-width:1.06667"
           x="79.017136"
           y="11.692995"
           id="text3000"><tspan
             style="font-size:12.8px;line-height:1.25;stroke-width:1.06667;fill:#808080"
             sodipodi:role="line"
             id="tspan3002"
             x="79.017136"
             y="11.692995">®</tspan></text>
      </g>
      <path
         transform="translate(4.16,1.3463277)"
         inkscape:connector-curvature="0"
         id="path834"
         d="M 12.501357,22.148945 C 7.0225704,11.173499 2.5436395,2.1333201 2.5481778,2.0596594 2.5571828,1.9134997 42.556429,1.8691828 42.556429,2.0153326 c 0,0.1195897 -19.987177,40.0889694 -20.046978,40.0889694 -0.02567,0 -4.529306,-8.97991 -10.008094,-19.955357 z"
         style="fill:#000080;stroke:none;stroke-width:1px;stroke-linecap:butt;stroke-linejoin:miter;stroke-opacity:1" />
      <path
         transform="translate(4.16,1.3463277)"
         inkscape:connector-curvature="0"
         id="path836"
         d="M 45.251429,42.686093 C 45.353817,42.416792 49.866263,33.367408 55.279088,22.576349 63.785651,5.6175865 65.151168,2.9980643 65.346036,3.2645622 65.470033,3.4341379 70.04006,12.483523 75.501651,23.374306 l 9.930166,19.801425 H 65.248543 45.065269 Z"
         style="fill:#0000ff;stroke:none;stroke-width:1px;stroke-linecap:butt;stroke-linejoin:miter;stroke-opacity:1" />
      <path
         transform="translate(4.16,1.3463277)"
         inkscape:connector-curvature="0"
         id="path838"
         d="M 12.561728,22.111688 C 7.1161658,11.213964 2.7240135,2.234337 2.8013894,2.156961 2.9681126,1.9902378 42.11656,1.9627216 42.283445,2.1292103 42.378711,2.2242486 22.651918,41.925731 22.509431,41.925731 c -0.02567,0 -4.502141,-8.91632 -9.947703,-19.814043 z"
         style="fill:#1e3e68;stroke:none;stroke-width:1px;stroke-linecap:butt;stroke-linejoin:miter;stroke-opacity:1;fill-opacity:1" />
      <path
         transform="translate(4.16,1.3463277)"
         inkscape:connector-curvature="0"
         id="path840"
         d="m 45.235001,42.983875 c 0,-0.273423 18.813787,-37.7529887 19.480116,-38.8069819 l 0.552437,-0.8738377 0.933648,1.7666949 c 0.513506,0.9716821 5.042375,9.9430337 10.064152,19.9363377 L 85.39586,43.175731 H 65.315429 c -14.194807,0 -20.080428,-0.05623 -20.080428,-0.191856 z"
         style="fill:#1e3e68;stroke:none;stroke-width:1px;stroke-linecap:butt;stroke-linejoin:miter;stroke-opacity:1;fill-opacity:1" />
    </g>
  </g>
</svg>
